<svg width="32" height="32" viewBox="0 0 32 32" fill="none" xmlns="http://www.w3.org/2000/svg">
  <filter id="glow" x="-20%" y="-20%" width="140%" height="140%">
    <feGaussianBlur stdDeviation="1.5" result="blur"/>
    <feComposite in="SourceGraphic" in2="blur" operator="over"/>
  </filter>
  <path d="M14 4C14 4 14.5 3 16 3C17.5 3 18 4 18 4V13H19C19 13 20 12.5 20.5 13.5C21 14.5 20 15 20 15H21C21 15 22 14.5 22.5 15.5C23 16.5 22 17 22 17H23C23 17 24 16.5 24.5 17.5C25 18.5 23 20 23 20L20 26L16 29H10L8 20L8 11L14 4Z" fill="#2F80ED" stroke="white" stroke-width="1.5" stroke-linejoin="round" filter="url(#glow)"/>
  <path d="M14 4C14 4 14.5 3 16 3C17.5 3 18 4 18 4V13H19C19 13 20 12.5 20.5 13.5C21 14.5 20 15 20 15H21C21 15 22 14.5 22.5 15.5C23 16.5 22 17 22 17H23C23 17 24 16.5 24.5 17.5C25 18.5 23 20 23 20L20 26L16 29H10L8 20L8 11L14 4Z" fill="#2F80ED"/>
</svg>
